HIERARCHY
ROOT Hips
{
  OFFSET -78.2937 95.2471 23.4479
  CHANNELS 6 Xposition Yposition Zposition Zrotation Xrotation Yrotation
  JOINT RightUpLeg
  {
    OFFSET -8.9458 -8.66707 0.101652
    CHANNELS 3 Zrotation Xrotation Yrotation
    JOINT RightLeg
    {
      OFFSET 0 -44.4227 1.3727
      CHANNELS 3 Zrotation Xrotation Yrotation
      JOINT RightFoot
      {
        OFFSET 0.253549 -42.0924 -1.46059
        CHANNELS 3 Zrotation Xrotation Yrotation
        JOINT RightToes
        {
          OFFSET 0.04 -4.41509 8.4991
          CHANNELS 3 Zrotation Xrotation Yrotation
          End Site
          {
            OFFSET -0.08 -0.137448 9.77979
          }
        }
      }
    }
  }
  JOINT Spine
  {
    OFFSET 0 11.8905 0
    CHANNELS 3 Zrotation Xrotation Yrotation
    JOINT Spine1
    {
      OFFSET 0 25.6574 0.127663
      CHANNELS 3 Zrotation Xrotation Yrotation
      JOINT HEad
      {
        OFFSET 0 8.73416 0.011341
        CHANNELS 3 Zrotation Xrotation Yrotation
        End Site
        {
          OFFSET -0.29 12.7742 2.51395
        }
      }
      JOINT LeftShoulder1
      {
        OFFSET 8.99 -0.362252 -0.22
        CHANNELS 3 Zrotation Xrotation Yrotation
        JOINT LeftArm
        {
          OFFSET 10.2827 -0.00338 0.322123
          CHANNELS 3 Zrotation Xrotation Yrotation
          JOINT LeftForeArm
          {
            OFFSET 32.7669 0.099144 -1.42434
            CHANNELS 3 Zrotation Xrotation Yrotation
            JOINT LeftHand
            {
              OFFSET 27.5643 0.085362 1.02216
              CHANNELS 3 Zrotation Xrotation Yrotation
              End Site
              {
                OFFSET 16.7443 -0.6 1.50291
              }
            }
          }
        }
      }
      JOINT RightShoulder
      {
        OFFSET -8.99 -0.362252 -0.22
        CHANNELS 3 Zrotation Xrotation Yrotation
        JOINT RightArm
        {
          OFFSET -10.2827 -0.00338 0.322123
          CHANNELS 3 Zrotation Xrotation Yrotation
          JOINT RightForeArm
          {
            OFFSET -32.8971 0.099144 -1.42434
            CHANNELS 3 Zrotation Xrotation Yrotation
            JOINT RightHand
            {
              OFFSET -27.4921 0.085362 1.02216
              CHANNELS 3 Zrotation Xrotation Yrotation
              End Site
              {
                OFFSET -16.6312 -0.6 1.50291
              }
            }
          }
        }
      }
    }
  }
  JOINT LeftUpLeg
  {
    OFFSET 8.9458 -8.66707 0.101652
    CHANNELS 3 Zrotation Xrotation Yrotation
    JOINT LeftLeg
    {
      OFFSET 0 -44.4227 1.3727
      CHANNELS 3 Zrotation Xrotation Yrotation
      JOINT LeftFoot
      {
        OFFSET -0.253549 -42.0924 -1.46059
        CHANNELS 3 Zrotation Xrotation Yrotation
        JOINT LeftToes
        {
          OFFSET -0.04 -4.41509 8.4991
          CHANNELS 3 Zrotation Xrotation Yrotation
          End Site
          {
            OFFSET 0.08 -0.047448 9.77979
          }
        }
      }
    }
  }
}
MOTION
Frames:	21
Frame Time:	0.0166667
-68.5146 102.349 -4.41463 1.28267 -1.76648 90.4739 -17.2251 -27.6111 -4.40096 12.7843 35.7244 -4.8332 20.429 -6.9137 0.253619 0.0462048 0.000533403 0.662642 -0.129372 6.83163 -5.40332 -2.64425 13.474 -10.1377 19.4346 1.71894 -20.3337 -4.37326e-015 1.59028e-015 -3.18055e-015 -89.7127 -7.89168 -49.4471 -43.7065 59.6817 -76.502 7.21815 19.4659 -2.26649 28.2441 -4.89343 -18.5511 88.6868 -41.546 52.1244 -4.38763 63.2576 136.267 -21.7832 18.0223 5.90221 10.5617 -5.08756 -8.17272 -17.0215 32.8126 9.95125 -7.73958 14.8483 1.5168 -1.31952e-009 1.56114e-007 -4.85867e-009 
-69.0746 102.271 -4.11503 0.751051 -1.74945 90.4756 -17.92 -29.2804 -4.3078 12.6163 36.4254 -2.38504 20.1218 -4.16657 -0.210071 0.0462048 0.000533403 0.662642 0.140988 6.73528 -5.33635 -2.70264 13.2511 -9.98882 18.6546 1.62646 -20.114 1.15865e-031 2.08724e-015 -3.18055e-015 -89.5768 -7.62477 -48.9825 -43.7695 59.6165 -76.2549 7.21815 19.4659 -2.26649 27.8557 -4.86843 -18.6746 88.894 -41.8027 52.673 -3.78743 63.9151 135.117 -21.448 18.1695 5.60072 11.8542 -6.74747 -6.9485 -18.2244 33.6142 9.31964 -9.20789 16.2657 1.9391 -1.31952e-009 1.56114e-007 -4.85867e-009 
-69.513 102.015 -3.77896 0.445673 -1.92709 90.7849 -18.37 -30.6836 -3.94327 12.8515 37.65 -2.48268 18.2408 -1.74268 -0.498022 0.0462048 0.000533403 0.662642 0.723547 6.76399 -5.31856 -2.52633 13.2379 -9.94551 17.6947 1.53931 -19.9658 -2.38542e-015 3.08116e-015 -0 -89.3428 -7.16831 -48.5292 -43.6685 59.4149 -76.0076 7.21815 19.4659 -2.26649 27.4511 -4.90908 -19.0308 89.1326 -41.9208 53.4086 -3.14092 64.6347 133.516 -21.6949 18.3571 5.47702 13.4357 -8.34249 -5.48331 -19.1829 34.6798 9.01356 -10.5698 18.7962 2.51839 -1.31952e-009 1.56114e-007 -4.85868e-009 
-69.8138 101.552 -3.37419 0.467026 -2.23785 91.3476 -18.8109 -31.5634 -3.25864 13.9576 39.3391 -6.56767 15.2401 -0.518513 -0.432912 0.0462048 0.000533403 0.662642 1.43001 6.89747 -5.34519 -2.20924 13.4263 -9.99429 16.7913 1.521 -19.9452 -4.6346e-031 5.56597e-015 4.77083e-015 -88.9698 -6.4653 -48.3571 -43.2395 59.0087 -75.8344 7.21815 19.4659 -2.26649 27.0137 -4.91619 -19.2998 89.4416 -42.2381 54.3395 -2.45064 65.3417 131.659 -22.5743 18.5672 5.51699 15.0237 -9.58167 -3.99827 -19.4699 35.9196 9.19379 -11.513 21.9426 3.13976 -1.31952e-009 1.56114e-007 -4.85867e-009 
-69.961 100.899 -2.8771 0.825304 -2.57786 91.9815 -19.4047 -31.8203 -2.23327 16.2873 41.3001 -14.163 11.9614 -1.53385 -0.0115923 0.0462048 0.000533403 0.662642 2.0739 7.09026 -5.38724 -1.89952 13.7483 -10.0529 16.153 1.64711 -20.0701 7.95139e-016 -6.90777e-015 1.59028e-015 -88.4413 -5.53893 -48.6818 -42.4687 58.3865 -75.7204 7.21815 19.4659 -2.26649 26.5726 -4.84972 -19.3235 89.7513 -42.842 55.375 -1.68415 65.9518 129.755 -23.9962 18.7927 5.66213 16.3798 -10.1754 -2.91919 -18.9752 37.0086 9.80807 -11.8045 24.9616 3.62108 -1.31952e-009 1.56114e-007 -4.85867e-009 
-69.9364 100.068 -2.26416 1.42855 -2.83897 92.4199 -20.1336 -31.5463 -0.916855 19.6643 43.1797 -22.7336 9.77486 -4.63107 0.525893 0.0462048 0.000533403 0.662642 2.46574 7.28735 -5.38975 -1.75152 14.1081 -9.9944 15.8999 1.94664 -20.3066 1.98785e-016 -1.98785e-016 -3.18055e-015 -87.7961 -4.49617 -49.5888 -41.4922 57.6236 -75.6094 7.21815 19.4659 -2.26649 26.2183 -4.74795 -19.1729 89.9591 -43.5358 56.4126 -0.84563 66.4003 128.008 -25.7376 19.0355 5.86241 17.3728 -9.95048 -2.65751 -18.0167 37.6276 10.4581 -11.5108 27.0374 3.8343 -1.31952e-009 1.56114e-007 -4.85867e-009 
-69.7232 99.0318 -1.50105 2.12745 -2.96131 92.3827 -20.8598 -31.1636 0.459641 23.2738 44.8282 -29.2401 9.29969 -7.67168 0.974423 0.0462048 0.000533403 0.662642 2.4539 7.44972 -5.27646 -1.86202 14.4276 -9.70735 16.0136 2.36033 -20.5787 -3.03456e-032 -1.09332e-015 -1.59028e-015 -87.1437 -3.52381 -50.9828 -40.5268 56.8782 -75.4863 7.21815 19.4659 -2.26649 26.0409 -4.67198 -19.0078 90.0157 -44.0244 57.379 -0.0895073 66.6328 126.699 -27.5209 19.3164 6.0376 17.9957 -8.93717 -3.38779 -17.1516 37.7902 10.7666 -11.0258 27.4837 3.80395 -1.31952e-009 1.56114e-007 -4.85867e-009 
-69.3778 97.8492 -0.606021 2.79765 -2.98437 91.7072 -21.3624 -31.2691 1.5213 26.0779 46.4325 -31.911 9.64258 -8.14339 1.19706 0.0462048 0.000533403 0.662642 2.10515 7.58132 -5.02883 -2.2312 14.6988 -9.15288 16.3437 2.71712 -20.7701 -1.19271e-015 1.78906e-015 -0 -86.6529 -2.85397 -52.6327 -39.8013 56.3447 -75.4018 7.21815 19.4659 -2.26649 26.0404 -4.63198 -18.8669 89.9645 -44.149 58.2124 0.240055 66.5625 126.234 -29.0884 19.7073 5.97005 18.3082 -7.31824 -4.98978 -16.8095 37.6771 10.9134 -10.526 26.0425 3.57523 -1.31951e-009 1.56114e-007 -4.85867e-009 
-68.9561 96.6266 0.403006 3.39003 -2.97793 90.374 -21.3984 -32.3039 1.97781 27.4637 48.5163 -30.8547 9.98937 -5.38369 1.1108 0.0462048 0.000533403 0.662642 1.60781 7.72526 -4.6748 -2.78046 14.9869 -8.39321 16.6741 2.7857 -20.7221 7.95139e-016 2.48481e-015 1.59028e-015 -86.5106 -2.70728 -54.2776 -39.4972 56.1789 -75.4156 7.21815 19.4659 -2.26649 26.1014 -4.56008 -18.5789 89.9506 -44.019 58.8612 -0.223042 66.1078 127.005 -30.2234 20.3542 5.25739 18.4049 -5.34905 -7.05798 -17.1403 37.5481 11.5598 -9.7947 22.9326 3.12743 -1.31952e-009 1.56114e-007 -4.85867e-009 
-68.4712 95.4437 1.53238 3.9072 -2.99905 88.5507 -20.8532 -34.2425 1.82339 27.3966 51.4505 -27.3237 10.6134 -0.709001 0.810726 0.0462048 0.000533403 0.662642 1.12476 7.92103 -4.28841 -3.38097 15.3652 -7.58407 16.8179 2.40947 -20.307 1.59028e-015 7.95139e-016 1.59028e-015 -86.8539 -3.20498 -55.7109 -39.7015 56.4321 -75.5235 7.21815 19.4659 -2.26649 26.0736 -4.36907 -17.9201 90.2011 -43.921 59.3443 -1.59137 65.3232 129.111 -30.7551 21.4384 3.43387 18.4162 -3.27556 -9.02393 -17.9571 37.553 13.1283 -8.71109 19.0104 2.5423 -1.31952e-009 1.56114e-007 -4.85867e-009 
-67.9013 94.3632 2.79607 4.33026 -3.10122 86.6087 -19.762 -36.7276 1.28346 26.096 55.1738 -22.4539 11.7686 4.0419 0.415514 0.0462048 0.000533403 0.662642 0.763036 8.16577 -3.97094 -3.88849 15.8315 -6.92677 16.7169 1.62395 -19.5652 -1.43452e-031 2.5842e-015 3.18055e-015 -87.6871 -4.26251 -56.8108 -40.3576 57.0149 -75.6481 7.21815 19.4659 -2.26649 25.8821 -4.04442 -16.8681 90.9323 -44.0987 59.7847 -3.63964 64.44 132.21 -30.5908 23.0502 0.254365 18.5023 -1.32241 -10.4746 -18.7936 37.6589 15.2774 -7.60226 15.4589 2.03155 -1.31952e-009 1.56114e-007 -4.85867e-009 
-67.2196 93.4675 4.20207 4.59672 -3.31835 85.0358 -18.2958 -39.2575 0.673781 23.8576 59.1387 -16.9301 13.0686 7.73611 0.0342944 0.0462048 0.000533403 0.662642 0.573187 8.40657 -3.80641 -4.19462 16.288 -6.58643 16.4771 0.674462 -18.7602 1.59028e-015 -5.56597e-015 -0 -88.8364 -5.56971 -57.5191 -41.2435 57.7174 -75.7113 7.21815 19.4659 -2.26649 25.5675 -3.6664 -15.6657 92.1917 -44.6207 60.3325 -6.0217 63.702 135.696 -29.782 25.0797 -4.07723 18.8249 0.278029 -11.3923 -19.19 37.8199 17.0948 -7.01097 12.9522 1.75046 -1.31952e-009 1.56114e-007 -4.85867e-009 
-66.4296 92.8531 5.73919 4.6563 -3.63563 84.2552 -16.8213 -41.3313 0.288633 21.4369 62.6002 -11.7317 13.8301 9.76701 -0.164792 0.0462048 0.000533403 0.662642 0.567198 8.57628 -3.82339 -4.25987 16.6091 -6.61944 16.2819 -0.0947272 -18.2512 7.95139e-016 -3.97569e-015 3.18055e-015 -90.0136 -6.72497 -57.7979 -42.0362 58.3004 -75.7249 7.21815 19.4659 -2.26649 25.2306 -3.34358 -14.6458 93.7875 -45.4078 61.0789 -8.47663 63.142 138.938 -28.5826 27.2599 -8.95793 19.528 1.32822 -12.0166 -18.9968 38.0321 17.7292 -7.3057 11.4045 1.73234 -1.31952e-009 1.56114e-007 -4.85868e-009 
-65.5738 92.5731 7.37269 4.51642 -3.98166 84.4812 -15.8539 -42.6333 0.302501 20.2818 65.0069 -8.67417 13.3428 9.86891 -0.00353338 0.0462048 0.000533403 0.662642 0.739558 8.6379 -3.9919 -4.10987 16.7251 -6.96726 16.2675 -0.457709 -18.2865 1.98785e-015 3.18055e-015 3.18055e-015 -90.9571 -7.41961 -57.627 -42.4732 58.6094 -75.7722 7.21815 19.4659 -2.26649 24.9433 -3.14072 -14.0235 95.4706 -46.3509 62.1338 -10.826 62.593 141.38 -27.3951 29.3284 -13.6682 20.6943 1.68921 -12.4827 -18.3645 38.2933 16.8197 -8.5 10.5392 1.94591 -1.31952e-009 1.56114e-007 -4.85867e-009 
-64.7037 92.5833 9.05164 4.23779 -4.2592 85.6958 -15.8392 -43.0703 0.769456 21.7938 66.0314 -9.65191 11.2371 8.36841 0.541104 0.0462048 0.000533403 0.662642 1.06424 8.59609 -4.24894 -3.80156 16.6499 -7.50525 16.4764 -0.471586 -18.8956 -3.97569e-016 7.95139e-016 -0 -91.5281 -7.5461 -57.0544 -42.4992 58.6304 -75.9178 7.21815 19.4659 -2.26649 24.6971 -3.05021 -13.7909 97.189 -47.4156 63.7509 -12.9015 61.876 142.575 -26.5965 31.1364 -17.6467 22.2764 1.26565 -12.6545 -17.4699 38.6527 14.4879 -10.39 10.3978 2.36724 -1.31952e-009 1.56114e-007 -4.85867e-009 
-63.8508 92.7555 10.7129 3.91159 -4.39532 87.6898 -16.9185 -42.6955 1.69473 26.013 65.5361 -14.9143 7.82118 5.6822 1.31659 0.0462048 0.000533403 0.662642 1.50031 8.47967 -4.52239 -3.38422 16.4479 -8.08831 16.8505 -0.417857 -19.9298 -1.98785e-015 5.1684e-015 6.36111e-015 -91.7188 -7.20463 -56.2142 -42.2616 58.4604 -76.1583 7.21815 19.4659 -2.26649 24.423 -3.01203 -13.763 99.1047 -48.5911 66.2819 -14.5026 60.9472 142.164 -26.4324 32.632 -20.5755 24.0583 0.064677 -12.3072 -16.3316 39.2143 11.1711 -12.8143 11.2313 3.02943 -1.31952e-009 1.56114e-007 -4.85868e-009 
-63.0174 92.9379 12.2892 3.63093 -4.34662 90.1023 -18.8403 -41.6552 3.06257 31.2623 63.7485 -22.3322 4.0314 1.79174 2.09777 0.0462048 0.000533403 0.662642 1.99405 8.31513 -4.73878 -2.89788 16.1767 -8.56443 17.219 -0.563111 -21.1802 3.97569e-016 -9.93923e-016 1.59028e-015 -91.6174 -6.63072 -55.2838 -41.9748 58.2431 -76.4791 7.21815 19.4659 -2.26649 24.0678 -2.97245 -13.7636 101.395 -49.7023 70.021 -15.3979 59.9495 139.772 -27.0611 33.7941 -22.3075 25.7188 -1.70763 -11.4565 -14.989 40.0351 7.63905 -15.6315 13.03 3.96628 -1.31952e-009 1.56114e-007 -4.85867e-009 
-62.1793 92.9978 13.7364 3.44589 -4.07457 92.4598 -21.0819 -40.1964 4.79782 35.5159 61.3711 -28.864 1.0742 -3.2287 2.68694 0.0462048 0.000533403 0.662642 2.45715 8.1069 -4.8211 -2.40218 15.8409 -8.77103 17.3545 -0.942517 -22.489 1.19271e-015 -1.78906e-015 1.59028e-015 -91.3708 -6.09678 -54.4353 -41.7827 58.0987 -76.8916 7.21815 19.4659 -2.26649 23.6262 -2.91227 -13.7215 103.965 -50.3198 75.0172 -15.3661 59.0486 134.869 -28.5935 34.5854 -22.7799 26.9915 -3.66075 -10.4749 -13.8324 41.0889 5.02877 -18.4541 15.2962 5.06658 -1.31952e-009 1.56114e-007 -4.85868e-009 
-61.3053 92.8408 15.0611 3.33509 -3.56755 94.2581 -23.0973 -38.6853 6.68218 37.6521 59.3057 -32.3417 -0.232508 -8.48932 3.08284 0.0462048 0.000533403 0.662642 2.76492 7.84055 -4.70106 -1.97456 15.3947 -8.56218 17.1096 -1.32394 -23.7865 3.97569e-016 2.28602e-015 -0 -91.1552 -5.8522 -53.8069 -41.731 58.0917 -77.4204 7.21815 19.4659 -2.26649 23.0649 -2.80843 -13.557 106.278 -49.9531 80.9107 -14.2811 58.1761 126.764 -30.9589 34.9545 -22.0673 27.8036 -5.36773 -9.80513 -13.5336 42.3561 4.42356 -20.6643 17.2659 6.02339 -1.31952e-009 1.56114e-007 -4.85868e-009 
-60.3896 92.4181 16.3124 3.25405 -2.89137 95.1015 -24.4835 -37.5273 8.31056 37.4796 58.2309 -32.0083 -0.0566704 -12.5907 3.43103 0.0462048 0.000533403 0.662642 2.83358 7.51153 -4.35146 -1.66532 14.8025 -7.87429 16.5368 -1.37115 -25.0474 2.78299e-015 1.83876e-015 1.59028e-015 -91.1473 -6.09676 -53.4674 -41.8367 58.2526 -78.042 7.21815 19.4659 -2.26649 22.2388 -2.59594 -13.0567 107.547 -48.3938 87.0256 -12.2017 56.9876 114.837 -33.7484 34.8953 -20.495 28.271 -6.50556 -9.59277 -14.562 43.834 6.15718 -21.85 18.2594 6.50968 -1.31952e-009 1.56114e-007 -4.85867e-009 
-59.453 91.707 17.5694 3.22725 -2.17192 94.8253 -24.9927 -37.005 9.17521 35.3766 58.4923 -28.3234 0.554195 -14.7345 3.71999 0.0462048 0.000533403 0.662642 2.71649 7.15854 -3.79958 -1.46491 14.115 -6.76867 15.8707 -0.891879 -26.24 0 5.2181e-016 -0 -91.4769 -6.93391 -53.4008 -42.1558 58.6085 -78.657 7.21815 19.4659 -2.26649 20.8757 -2.18104 -11.877 86.5224 -41.8691 79.0159 -7.99861 38.4514 93.9415 -34.1923 34.9449 -19.7233 28.5753 -6.8852 -9.69465 -16.8976 45.466 9.58981 -22.1144 17.8856 6.41035 -1.31952e-009 1.56114e-007 -4.85868e-009 
